# File created by Blade
# Date/Time:  Fri Jan 16 19:14:28 2015
# Frame Rate: 120.000 fps
#------------------------------------------------------
:FULLY-SPECIFIED
:DEGREES
272
root 19.135714 35.760114 -22.639017 -167.929228 -2.167689 -178.320308
Spine -27.738750 0.766403 -0.648940
Head 16.381511 -2.202369 1.069211
LeftShoulder -18.681673 -67.520356 69.351493
LeftArm 47.163790 -20.475778 5.645732
LeftForeArm 1.102640 0.000000 8.112675
LeftHand 0.622462 -0.000000 -22.423318
LeftHandThumb1 -26.253704 0.000000 33.147579
RightShoulder -9.595557 20.574408 -45.993780
RightArm 38.635913 48.893285 -24.157822
RightForeArm -45.586006 -0.000000 10.368536
RightHand -3.045157 -0.000000 7.520419
RightHandThumb1 -24.326973 -0.000000 -32.862282
LeftUpLeg -2.135018 6.688592 1.135392
LeftLeg -6.883793 -0.000000 0.000000
LeftFoot -20.806863 27.849488 -17.062876
LeftToeBase 23.533231 -0.000000 -0.000000
RightUpLeg -3.546280 -9.473218 1.759259
RightLeg -3.500175 -0.000000 0.000000
RightFoot -20.560525 -22.837634 21.379387
RightToeBase 22.121598 -0.000000 -0.000000
273
root 19.131568 35.760842 -22.634145 -167.944685 -2.183814 -178.323289
Spine -27.709662 0.777498 -0.646549
Head 16.342785 -2.234338 1.138094
LeftShoulder -18.650407 -67.592689 69.412426
LeftArm 47.136106 -20.418414 5.685881
LeftForeArm 1.058052 -0.000000 7.912534
LeftHand 0.669204 -0.000000 -22.450959
LeftHandThumb1 -26.253704 0.000000 33.147579
RightShoulder -9.568158 20.637191 -46.042509
RightArm 38.713430 48.877262 -24.132919
RightForeArm -45.758496 -0.000000 10.102069
RightHand -2.796389 -0.000000 7.655874
RightHandThumb1 -24.326973 -0.000000 -32.862282
LeftUpLeg -2.127995 6.688986 1.127749
LeftLeg -6.888658 -0.000000 0.000000
LeftFoot -20.794945 27.846343 -17.056005
LeftToeBase 23.573681 -0.000000 -0.000000
RightUpLeg -3.540106 -9.487106 1.750480
RightLeg -3.493659 -0.000000 0.000000
RightFoot -20.563320 -22.839091 21.396632
RightToeBase 22.149804 -0.000000 -0.000000
274
root 19.126473 35.761843 -22.629200 -167.964295 -2.204417 -178.327718
Spine -27.671182 0.795547 -0.619237
Head 16.311929 -2.152623 1.208886
LeftShoulder -18.694807 -67.750073 69.532407
LeftArm 47.084442 -20.304172 5.683949
LeftForeArm 0.953351 -0.000000 7.791522
LeftHand 0.792874 -0.000000 -22.091101
LeftHandThumb1 -26.253704 0.000000 33.147579
RightShoulder -9.598250 20.619657 -46.201199
RightArm 38.755552 48.804224 -24.081538
RightForeArm -45.369695 0.000000 9.753833
RightHand -2.661338 -0.000000 7.503611
RightHandThumb1 -24.326973 -0.000000 -32.862282
LeftUpLeg -2.122473 6.694753 1.118188
LeftLeg -6.885105 -0.000000 0.000000
LeftFoot -20.780010 27.815578 -17.053689
LeftToeBase 23.589643 -0.000000 -0.000000
RightUpLeg -3.526863 -9.534450 1.745012
RightLeg -3.496704 -0.000000 0.000000
RightFoot -20.545293 -22.831510 21.395337
RightToeBase 22.147379 -0.000000 -0.000000
275
root 19.123409 35.762796 -22.623593 -167.979135 -2.218686 -178.328165
Spine -27.629965 0.799678 -0.611886
Head 16.258669 -2.201234 1.248257
LeftShoulder -18.784485 -67.840659 69.733270
LeftArm 47.050043 -20.278565 5.600683
LeftForeArm 0.924484 0.000000 7.641276
LeftHand 0.855631 -0.000000 -22.106373
LeftHandThumb1 -26.253704 0.000000 33.147579
RightShoulder -9.603190 20.616197 -46.291311
RightArm 38.762360 48.771918 -24.081234
RightForeArm -45.128419 -0.000000 9.467370
RightHand -2.497107 -0.000000 7.557482
RightHandThumb1 -24.326973 -0.000000 -32.862282
LeftUpLeg -2.120352 6.697678 1.114586
LeftLeg -6.880146 -0.000000 0.000000
LeftFoot -20.762079 27.796829 -17.049296
LeftToeBase 23.488419 -0.000000 -0.000000
RightUpLeg -3.527501 -9.549624 1.740138
RightLeg -3.480290 -0.000000 0.000000
RightFoot -20.539076 -22.823050 21.409935
RightToeBase 22.100816 -0.000000 -0.000000
